{
    "asset" : {
        "generator" : "Khronos glTF Blender I/O v1.3.48",
        "version" : "2.0"
    },
    "scene" : 0,
    "scenes" : [
        {
            "name" : "Scene",
            "nodes" : [
                0
            ]
        }
    ],
    "nodes" : [
        {
            "mesh" : 0,
            "name" : "conductivity_kriging",
            "scale" : [
                1,
                0.10000000149011612,
                1
            ],
            "translation" : [
                0,
                383.4951171875,
                0
            ]
        }
    ],
    "materials" : [
        {
            "doubleSided" : true,
            "emissiveFactor" : [
                0,
                0,
                0
            ],
            "name" : "rastMat.008",
            "pbrMetallicRoughness" : {
                "baseColorTexture" : {
                    "index" : 0,
                    "texCoord" : 0
                },
                "metallicFactor" : 0,
                "roughnessFactor" : 0.5
            }
        }
    ],
    "meshes" : [
        {
            "name" : "DEM.009",
            "primitives" : [
                {
                    "attributes" : {
                        "POSITION" : 0,
                        "NORMAL" : 1,
                        "TEXCOORD_0" : 2
                    },
                    "indices" : 3,
                    "material" : 0
                }
            ]
        }
    ],
    "textures" : [
        {
            "sampler" : 0,
            "source" : 0
        }
    ],
    "images" : [
        {
            "bufferView" : 4,
            "mimeType" : "image/png",
            "name" : "color_kriging.tif"
        }
    ],
    "accessors" : [
        {
            "bufferView" : 0,
            "componentType" : 5126,
            "count" : 29699,
            "max" : [
                323.69744873046875,
                404.114013671875,
                322.1224060058594
            ],
            "min" : [
                -324.30255126953125,
                336.6629638671875,
                -321.3775939941406
            ],
            "type" : "VEC3"
        },
        {
            "bufferView" : 1,
            "componentType" : 5126,
            "count" : 29699,
            "type" : "VEC3"
        },
        {
            "bufferView" : 2,
            "componentType" : 5126,
            "count" : 29699,
            "type" : "VEC2"
        },
        {
            "bufferView" : 3,
            "componentType" : 5123,
            "count" : 70602,
            "type" : "SCALAR"
        }
    ],
    "bufferViews" : [
        {
            "buffer" : 0,
            "byteLength" : 356388,
            "byteOffset" : 0
        },
        {
            "buffer" : 0,
            "byteLength" : 356388,
            "byteOffset" : 356388
        },
        {
            "buffer" : 0,
            "byteLength" : 237592,
            "byteOffset" : 712776
        },
        {
            "buffer" : 0,
            "byteLength" : 141204,
            "byteOffset" : 950368
        },
        {
            "buffer" : 0,
            "byteLength" : 24773,
            "byteOffset" : 1091572
        }
    ],
    "samplers" : [
        {
            "magFilter" : 9729,
            "minFilter" : 9986,
            "wrapS" : 33071,
            "wrapT" : 33071
        }
    ],
    "buffers" : [
        {
            "byteLength" : 1116348,
            "uri" : "data:application/octet-stream;base64,"
        }
    ]
}
