{
    "asset" : {
        "generator" : "Khronos glTF Blender I/O v1.3.48",
        "version" : "2.0"
    },
    "scene" : 0,
    "scenes" : [
        {
            "name" : "Scene",
            "nodes" : [
                0
            ]
        }
    ],
    "nodes" : [
        {
            "mesh" : 0,
            "name" : "water",
            "scale" : [
                0.9591990113258362,
                0.9591990113258362,
                0.9591990113258362
            ],
            "translation" : [
                6.488734245300293,
                27.505462646484375,
                18.310537338256836
            ]
        }
    ],
    "materials" : [
        {
            "doubleSided" : true,
            "emissiveFactor" : [
                0,
                0,
                0
            ],
            "name" : "Water.001",
            "normalTexture" : {
                "index" : 0,
                "texCoord" : 0
            },
            "pbrMetallicRoughness" : {
                "baseColorFactor" : [
                    0.12588819861412048,
                    0.46558913588523865,
                    1,
                    1
                ],
                "metallicFactor" : 0,
                "roughnessFactor" : 0
            }
        }
    ],
    "meshes" : [
        {
            "name" : "Plane.001",
            "primitives" : [
                {
                    "attributes" : {
                        "POSITION" : 0,
                        "NORMAL" : 1,
                        "TEXCOORD_0" : 2
                    },
                    "indices" : 3,
                    "material" : 0
                }
            ]
        }
    ],
    "textures" : [
        {
            "source" : 0
        }
    ],
    "images" : [
        {
            "bufferView" : 4,
            "mimeType" : "image/jpeg",
            "name" : "Water_1_M_Normal"
        }
    ],
    "accessors" : [
        {
            "bufferView" : 0,
            "componentType" : 5126,
            "count" : 5504,
            "max" : [
                92.13912963867188,
                0,
                92.13912963867188
            ],
            "min" : [
                -92.13912963867188,
                0,
                -92.13912963867188
            ],
            "type" : "VEC3"
        },
        {
            "bufferView" : 1,
            "componentType" : 5126,
            "count" : 5504,
            "type" : "VEC3"
        },
        {
            "bufferView" : 2,
            "componentType" : 5126,
            "count" : 5504,
            "type" : "VEC2"
        },
        {
            "bufferView" : 3,
            "componentType" : 5123,
            "count" : 22326,
            "type" : "SCALAR"
        }
    ],
    "bufferViews" : [
        {
            "buffer" : 0,
            "byteLength" : 66048,
            "byteOffset" : 0
        },
        {
            "buffer" : 0,
            "byteLength" : 66048,
            "byteOffset" : 66048
        },
        {
            "buffer" : 0,
            "byteLength" : 44032,
            "byteOffset" : 132096
        },
        {
            "buffer" : 0,
            "byteLength" : 44652,
            "byteOffset" : 176128
        },
        {
            "buffer" : 0,
            "byteLength" : 406361,
            "byteOffset" : 220780
        }
    ],
    "buffers" : [
        {
            "byteLength" : 627144,
            "uri" : "data:application/octet-stream;base64,"
        }
    ]
}
